HIERARCHY
ROOT Hips
{
  OFFSET 5.72205e-005 65.662 3.42586
  CHANNELS 6 Xposition Yposition Zposition Zrotation Xrotation Yrotation
  JOINT Chest
  {
    OFFSET 0 8.7983 -4.7612
    CHANNELS 3 Zrotation Xrotation Yrotation
    JOINT Chest2
    {
      OFFSET 0 8.0291 0.4195
      CHANNELS 3 Zrotation Xrotation Yrotation
      JOINT Chest3
      {
        OFFSET 0 9.9351 -2.2114
        CHANNELS 3 Zrotation Xrotation Yrotation
        JOINT Neck
        {
          OFFSET 0 22.3885 -0.4656
          CHANNELS 3 Zrotation Xrotation Yrotation
          JOINT Head
          {
            OFFSET -0.0001 12.643 3.4389
            CHANNELS 3 Zrotation Xrotation Yrotation
            End Site
            {
              OFFSET 0.0001 17.6655 0.5274
            }
          }
        }
        JOINT LeftCollar
        {
          OFFSET 2.2603 21.606 7.4023
          CHANNELS 3 Zrotation Xrotation Yrotation
          JOINT LeftShoulder
          {
            OFFSET 13.5163 -1.1332 -5.0146
            CHANNELS 3 Zrotation Xrotation Yrotation
            JOINT LeftElbow
            {
              OFFSET -0.0995 -28.05 -0.2431
              CHANNELS 3 Zrotation Xrotation Yrotation
              JOINT LeftWrist
              {
                OFFSET 0.0679 -23.3996 -0.1402
                CHANNELS 3 Zrotation Xrotation Yrotation
                JOINT LeftFinger1
                {
                  OFFSET 0.7932 -9.069 2.5189
                  CHANNELS 3 Zrotation Xrotation Yrotation
                  JOINT LeftFinger11
                  {
                    OFFSET -0.8272 -3.3923 0.5977
                    CHANNELS 3 Zrotation Xrotation Yrotation
                    JOINT LeftFinger12
                    {
                      OFFSET -0.5649 -2.3158 0.4082
                      CHANNELS 3 Zrotation Xrotation Yrotation
                      End Site
                      {
                        OFFSET -0.4919 -1.6479 0.2673
                      }
                    }
                  }
                }
                JOINT LeftFinger2
                {
                  OFFSET 0.9159 -9.2044 0.2193
                  CHANNELS 3 Zrotation Xrotation Yrotation
                  JOINT LeftFinger21
                  {
                    OFFSET 0.0117 -4.1944 -0.0248
                    CHANNELS 3 Zrotation Xrotation Yrotation
                    JOINT LeftFinger22
                    {
                      OFFSET 0.0071 -2.3249 -0.0142
                      CHANNELS 3 Zrotation Xrotation Yrotation
                      End Site
                      {
                        OFFSET -0.1475 -2.0882 0.0028
                      }
                    }
                  }
                }
                JOINT LeftFinger3
                {
                  OFFSET 0.6113 -8.7231 -2.0637
                  CHANNELS 3 Zrotation Xrotation Yrotation
                  JOINT LeftFinger31
                  {
                    OFFSET -0.1927 -3.8059 -0.2383
                    CHANNELS 3 Zrotation Xrotation Yrotation
                    JOINT LeftFinger32
                    {
                      OFFSET -0.1091 -2.1688 -0.1362
                      CHANNELS 3 Zrotation Xrotation Yrotation
                      End Site
                      {
                        OFFSET -0.2358 -1.9176 -0.0906
                      }
                    }
                  }
                }
                JOINT LeftFinger4
                {
                  OFFSET -0.6151 -8.0947 -3.5641
                  CHANNELS 3 Zrotation Xrotation Yrotation
                  JOINT LeftFinger41
                  {
                    OFFSET -0.4882 -2.341 -0.6462
                    CHANNELS 3 Zrotation Xrotation Yrotation
                    JOINT LeftFinger42
                    {
                      OFFSET -0.3575 -1.7167 -0.4742
                      CHANNELS 3 Zrotation Xrotation Yrotation
                      End Site
                      {
                        OFFSET -0.4187 -1.5237 -0.3496
                      }
                    }
                  }
                }
                JOINT LeftFinger0
                {
                  OFFSET -1.42 -1.8761 1.4223
                  CHANNELS 3 Zrotation Xrotation Yrotation
                  JOINT LeftFinger01
                  {
                    OFFSET -1.1471 -3.4929 2.6334
                    CHANNELS 3 Zrotation Xrotation Yrotation
                    JOINT LeftFinger02
                    {
                      OFFSET -0.823 -2.3 1.6571
                      CHANNELS 3 Zrotation Xrotation Yrotation
                      End Site
                      {
                        OFFSET -0.5822 -1.6914 1.1582
                      }
                    }
                  }
                }
              }
            }
          }
        }
        JOINT RightCollar
        {
          OFFSET -2.2603 21.606 7.4023
          CHANNELS 3 Zrotation Xrotation Yrotation
          JOINT RightShoulder
          {
            OFFSET -13.5187 -1.1334 -5.0155
            CHANNELS 3 Zrotation Xrotation Yrotation
            JOINT RightElbow
            {
              OFFSET 0.0994 -28.0499 -0.2431
              CHANNELS 3 Zrotation Xrotation Yrotation
              JOINT RightWrist
              {
                OFFSET -0.0679 -23.3996 -0.1402
                CHANNELS 3 Zrotation Xrotation Yrotation
                JOINT RightFinger1
                {
                  OFFSET -0.7932 -9.0691 2.5189
                  CHANNELS 3 Zrotation Xrotation Yrotation
                  JOINT RightFinger11
                  {
                    OFFSET 0.8272 -3.3923 0.5977
                    CHANNELS 3 Zrotation Xrotation Yrotation
                    JOINT RightFinger12
                    {
                      OFFSET 0.565 -2.3158 0.4082
                      CHANNELS 3 Zrotation Xrotation Yrotation
                      End Site
                      {
                        OFFSET 0.4919 -1.6479 0.2673
                      }
                    }
                  }
                }
                JOINT RightFinger2
                {
                  OFFSET -0.916 -9.2044 0.2193
                  CHANNELS 3 Zrotation Xrotation Yrotation
                  JOINT RightFinger21
                  {
                    OFFSET -0.0117 -4.1944 -0.0248
                    CHANNELS 3 Zrotation Xrotation Yrotation
                    JOINT RightFinger22
                    {
                      OFFSET -0.0071 -2.3249 -0.0142
                      CHANNELS 3 Zrotation Xrotation Yrotation
                      End Site
                      {
                        OFFSET 0.1475 -2.0882 0.0028
                      }
                    }
                  }
                }
                JOINT RightFinger3
                {
                  OFFSET -0.6113 -8.7231 -2.0637
                  CHANNELS 3 Zrotation Xrotation Yrotation
                  JOINT RightFinger31
                  {
                    OFFSET 0.1927 -3.8059 -0.2383
                    CHANNELS 3 Zrotation Xrotation Yrotation
                    JOINT RightFinger32
                    {
                      OFFSET 0.1091 -2.1688 -0.1362
                      CHANNELS 3 Zrotation Xrotation Yrotation
                      End Site
                      {
                        OFFSET 0.2358 -1.9176 -0.0906
                      }
                    }
                  }
                }
                JOINT RightFinger4
                {
                  OFFSET 0.6151 -8.0947 -3.564
                  CHANNELS 3 Zrotation Xrotation Yrotation
                  JOINT RightFinger41
                  {
                    OFFSET 0.4882 -2.341 -0.6462
                    CHANNELS 3 Zrotation Xrotation Yrotation
                    JOINT RightFinger42
                    {
                      OFFSET 0.3574 -1.7166 -0.4742
                      CHANNELS 3 Zrotation Xrotation Yrotation
                      End Site
                      {
                        OFFSET 0.4187 -1.5237 -0.3496
                      }
                    }
                  }
                }
                JOINT RightFinger0
                {
                  OFFSET 1.4199 -1.8761 1.4221
                  CHANNELS 3 Zrotation Xrotation Yrotation
                  JOINT RightFinger01
                  {
                    OFFSET 1.1472 -3.4929 2.6336
                    CHANNELS 3 Zrotation Xrotation Yrotation
                    JOINT RightFinger02
                    {
                      OFFSET 0.8229 -2.3 1.6571
                      CHANNELS 3 Zrotation Xrotation Yrotation
                      End Site
                      {
                        OFFSET 0.5822 -1.6914 1.1582
                      }
                    }
                  }
                }
              }
            }
          }
        }
      }
    }
  }
  JOINT RightHip
  {
    OFFSET -9.412 3.9771 -0.7758
    CHANNELS 3 Zrotation Xrotation Yrotation
    JOINT RightKnee
    {
      OFFSET -0.7531 -40.938 0
      CHANNELS 3 Zrotation Xrotation Yrotation
      JOINT RightAnkle
      {
        OFFSET 0 -40.1986 0
        CHANNELS 3 Zrotation Xrotation Yrotation
        JOINT RightToe
        {
          OFFSET 0 -4.4182 9.239
          CHANNELS 3 Zrotation Xrotation Yrotation
          End Site
          {
            OFFSET 0 0 6.1981
          }
        }
      }
    }
  }
  JOINT LeftHip
  {
    OFFSET 9.4119 3.9773 -0.7758
    CHANNELS 3 Zrotation Xrotation Yrotation
    JOINT LeftKnee
    {
      OFFSET 0.7532 -40.9383 0
      CHANNELS 3 Zrotation Xrotation Yrotation
      JOINT LeftAnkle
      {
        OFFSET 0 -40.1986 0
        CHANNELS 3 Zrotation Xrotation Yrotation
        JOINT LeftToe
        {
          OFFSET 0 -4.4182 9.239
          CHANNELS 3 Zrotation Xrotation Yrotation
          End Site
          {
            OFFSET 0 0 6.1981
          }
        }
      }
    }
  }
}
MOTION
Frames:	5
Frame Time:	0.0333333
5.72205e-005 65.662 3.42586 0 0 -0 0 0 -0 0 0 -0 0 0 -0 0 0 -0 0 0 -0 0 0 -12.5014 88.1196 14.2451 10.6914 -0.00160068 -0.00239207 0.000740045 -8.4365e-005 7.00714e-005 -9.52055e-007 9.93923e-017 -1.98785e-016 -1.59028e-015 9.93923e-017 -5.96354e-016 -1.59028e-015 -9.93923e-017 -5.96354e-016 -1.59028e-015 9.93923e-017 -1.98785e-016 -1.59028e-015 -0.0128176 0.00232552 8.52707e-005 9.93923e-017 5.96354e-016 -0 9.93923e-017 -1.98785e-016 -1.59028e-015 -0.0160551 0.00299681 0.000857156 -2.48481e-016 0 3.18055e-015 9.93923e-017 -1.98785e-016 -1.59028e-015 -0.0125865 0.0031206 0.00282719 0 1.98785e-016 -0 9.93923e-017 -1.98785e-016 -1.59028e-015 9.93923e-017 -5.96354e-016 -1.59028e-015 -9.93923e-017 -5.96354e-016 -1.59028e-015 -0.865644 0.16582 7.03859 -88.0329 10.2057 -10.5567 0.0015593 -0.00248883 -0.000788628 7.87605e-005 4.10553e-005 1.24965e-005 -3.97569e-016 -7.95139e-016 3.18055e-015 -1.98785e-016 -3.97569e-016 3.18055e-015 -1.98785e-016 0 3.18055e-015 -3.97569e-016 -7.95139e-016 3.18055e-015 0.0129473 0.00231697 -8.70038e-005 9.93923e-017 -7.95139e-016 1.59028e-015 -3.97569e-016 -7.95139e-016 3.18055e-015 0.0163314 0.00303369 -0.000872333 3.97569e-016 7.95139e-016 -3.18055e-015 -3.97569e-016 -7.95139e-016 3.18055e-015 0.0145763 0.00367772 -0.00326275 9.93923e-017 -3.97569e-016 -0 -3.97569e-016 -7.95139e-016 3.18055e-015 -1.98785e-016 -3.97569e-016 3.18055e-015 -1.98785e-016 0 3.18055e-015 3.42482 1.32465 -0.0626183 0.000117508 0.717283 0.000978199 -3.4257 -2.04197 -0.0604716 6.47761e-025 0 -0 -3.42483 1.34017 0.0627307 -0.000193936 0.682302 -0.0013703 3.42574 -2.02253 0.0595886 -8.45714e-024 0 -7.40531e-025 
-36.6744 34.2823 13.1249 0.539873 0.509323 133.331 -0.0240203 3.31733 -0.173815 -0.038037 6.63471 -0.347108 -0.0380315 6.63472 -0.347129 -1.57382e-007 -16.3649 9.39605e-006 -8.02478e-007 -10.4617 -9.82271e-006 15.8458 -19.3852 -11.5222 35.3406 -38.2372 0.825445 -39.076 -53.6055 -20.1911 -30.6313 -3.3665 -0.198561 6.92129e-006 2.78297e-006 3.05608e-006 -8.75483e-006 1.26606e-005 -3.12368e-006 3.55584e-006 -1.13414e-005 5.28852e-006 6.92129e-006 2.78297e-006 3.05608e-006 -0.0128139 0.00232094 8.86434e-005 -1.60973e-005 1.81727e-005 3.19154e-006 6.92129e-006 2.78297e-006 3.05608e-006 -0.0160426 0.00301069 0.000854251 0 6.36111e-015 -0 6.92129e-006 2.78297e-006 3.05608e-006 -0.012594 0.00312268 0.00282711 7.06307e-023 -6.36185e-007 6.36111e-015 6.92129e-006 2.78297e-006 3.05608e-006 -8.75483e-006 1.26606e-005 -3.12368e-006 3.55584e-006 -1.13414e-005 5.28852e-006 -4.10078 -7.60708 10.6417 -48.6959 -33.4867 -9.76781 -15.6503 -77.8954 -39.3537 35.0471 -6.73369 -13.6238 3.97569e-015 7.95139e-016 2.50469e-014 4.77083e-015 7.95139e-016 2.18663e-014 4.77083e-015 2.38542e-015 2.46493e-014 3.97569e-015 7.95139e-016 2.50469e-014 0.0129968 0.00232307 -9.69781e-005 7.95139e-016 7.95139e-016 -3.97569e-016 3.97569e-015 7.95139e-016 2.50469e-014 0.0163303 0.00301671 -0.000871903 -5.51738e-033 -7.95139e-016 -3.97569e-016 3.97569e-015 7.95139e-016 2.50469e-014 0.0145987 0.00366388 -0.00326386 7.95139e-016 0 1.98785e-015 3.97569e-015 7.95139e-016 2.50469e-014 4.77083e-015 7.95139e-016 2.18663e-014 4.77083e-015 2.38542e-015 2.46493e-014 -7.88435 -8.58662 -10.737 -88.9441 87.7434 89.539 -3.16026 18.8778 -3.59597 9.54166e-015 3.18055e-015 -0 9.05937 -8.7382 9.84384 87.4485 87.7511 -88.052 3.17168 19.215 2.02922 2.62974e-007 -1.4798e-006 -1.66235e-006 
-56.1587 20.4206 19.3844 -0.24821 1.04716 -166.664 -0.0243616 4.80988 -0.256394 -0.0271811 9.61985 -0.513416 -0.0271811 9.61986 -0.513418 -2.07527e-006 -23.3913 -4.98382e-006 3.21103e-007 -14.7194 3.4567e-006 23.2205 -28.104 -10.983 23.5756 -63.2694 4.66599 -80.853 -75.4237 -54.0186 -44.2957 -5.13249 0.574919 8.56268e-007 4.76192e-006 7.10329e-006 -6.90624e-007 -2.20468e-006 -2.4244e-006 -2.88096e-006 -7.65894e-007 3.20775e-006 8.56268e-007 4.76192e-006 7.10329e-006 -0.0127471 0.00230057 9.12164e-005 -1.02768e-005 1.22952e-005 -5.34259e-006 8.56268e-007 4.76192e-006 7.10329e-006 -0.0161437 0.00300605 0.000870568 -0 -1.59028e-015 -0 8.56268e-007 4.76192e-006 7.10329e-006 -0.0125396 0.00310073 0.00282409 -1.59028e-015 -3.18055e-015 -9.54166e-015 8.56268e-007 4.76192e-006 7.10329e-006 -6.90624e-007 -2.20468e-006 -2.4244e-006 -2.88096e-006 -7.65894e-007 3.20775e-006 -5.22804 -11.0799 12.3162 -34.6025 -53.8966 -11.6564 99.1136 -65.4571 69.0573 50.6135 -10.0601 -20.7495 2.94824e-007 -2.60939e-006 1.65888e-006 -9.46405e-006 -1.54298e-005 -4.23855e-006 1.62581e-006 -3.58587e-006 -1.52863e-006 2.94824e-007 -2.60939e-006 1.65888e-006 0.0129297 0.00231223 -8.0422e-005 -5.8939e-007 1.76288e-006 -3.31778e-006 2.94824e-007 -2.60939e-006 1.65888e-006 0.016269 0.0030221 -0.000878462 -3.18055e-015 1.78906e-015 -2.78299e-015 2.94824e-007 -2.60939e-006 1.65888e-006 0.0146236 0.00367463 -0.00326875 6.36111e-015 1.98785e-015 -1.98785e-015 2.94824e-007 -2.60939e-006 1.65888e-006 -9.46405e-006 -1.54298e-005 -4.23855e-006 1.62581e-006 -3.58587e-006 -1.52863e-006 -13.5659 -11.2907 -17.1944 -172.705 51.0752 171.226 -1.54126 28.0239 -6.60626 -6.08835e-007 -1.5923e-007 3.19095e-006 15.2759 -11.5885 15.846 172.699 51.1372 -171.243 2.11235 28.6106 4.06581 3.5169e-006 -8.52544e-007 -6.20448e-007 
-51.8555 23.7937 17.5724 -6.894e-015 1.00189 180 -0.0248745 4.47823 -0.237777 -0.0311841 8.95653 -0.475789 -0.0311841 8.95655 -0.475791 -1.61283e-006 -21.0789 -3.46909e-006 -2.98213e-008 -12.7729 1.09113e-007 21.5658 -26.1669 -11.112 24.5179 -57.8345 2.19957 -65.9745 -71.1647 -40.8787 -41.2713 -4.71519 0.36036 1.59028e-015 -1.59028e-015 -3.18055e-015 -8.82781e-032 -1.59028e-015 -3.18055e-015 1.59028e-015 0 -1.59028e-014 1.59028e-015 -1.59028e-015 -3.18055e-015 -0.0127536 0.00232024 9.22588e-005 -4.77083e-015 6.36111e-015 -1.27222e-014 1.59028e-015 -1.59028e-015 -3.18055e-015 -0.0160261 0.00299291 0.000854397 -2.64834e-031 -4.77083e-015 -3.18055e-015 1.59028e-015 -1.59028e-015 -3.18055e-015 -0.0126076 0.00312476 0.0028328 -4.77083e-015 6.36111e-015 3.18055e-015 1.59028e-015 -1.59028e-015 -3.18055e-015 -8.82781e-032 -1.59028e-015 -3.18055e-015 1.59028e-015 0 -1.59028e-014 -4.99564 -10.3103 11.9396 -37.3558 -49.3496 -10.9017 97.9838 -72.6188 69.1519 47.1771 -9.28753 -19.1162 3.18055e-015 -1.23246e-014 -1.59028e-015 3.18055e-015 -1.39149e-014 -0 3.18055e-015 -1.23246e-014 -0 3.18055e-015 -1.23246e-014 -1.59028e-015 0.012935 0.00228348 -8.33423e-005 -6.49011e-007 -1.99596e-005 -3.29819e-006 3.18055e-015 -1.23246e-014 -1.59028e-015 0.0163438 0.00301698 -0.000860865 1.59028e-015 -1.78906e-015 -0 3.18055e-015 -1.23246e-014 -1.59028e-015 0.0145391 0.00361897 -0.00325261 -1.10348e-031 -3.97569e-015 -1.59028e-015 3.18055e-015 -1.23246e-014 -1.59028e-015 3.18055e-015 -1.39149e-014 -0 3.18055e-015 -1.23246e-014 -0 -12.2009 -10.4914 -15.3992 -171.539 60.2899 170.839 -2.0397 26.1876 -5.74841 -3.05159e-007 2.24204e-008 -2.9634e-007 13.8122 -10.7419 14.202 171.531 60.3489 -170.847 2.44825 26.7039 3.45037 -3.04998e-007 -3.54205e-006 -2.96459e-007 
-51.8552 24.0365 17.3929 -6.894e-015 1.00189 180 -0.0248744 4.47823 -0.237777 -0.0311841 8.95653 -0.475789 -0.0311841 8.95655 -0.47579 -1.6282e-006 -20.4641 -3.58181e-006 -7.12686e-008 -11.9537 3.2496e-007 21.5658 -26.1669 -11.112 24.518 -57.8345 2.19965 -65.9747 -71.1647 -40.8789 -41.2713 -4.71517 0.36037 -3.18055e-015 0 -0 1.05934e-030 3.18055e-015 -1.90833e-014 -1.59028e-015 0 -1.27222e-014 -3.18055e-015 0 -0 -0.0128748 0.0023271 8.66788e-005 -3.18055e-015 1.59028e-015 -3.18055e-015 -3.18055e-015 0 -0 -0.0160304 0.00299174 0.000855337 -7.77626e-007 6.71015e-006 2.35168e-006 -3.18055e-015 0 -0 -0.0125655 0.00312251 0.00281862 1.59028e-015 4.77083e-015 -0 -3.18055e-015 0 -0 1.05934e-030 3.18055e-015 -1.90833e-014 -1.59028e-015 0 -1.27222e-014 -4.99565 -10.3103 11.9396 -37.3558 -49.3496 -10.9017 97.984 -72.6188 69.152 47.177 -9.28757 -19.1162 3.18055e-015 2.38542e-015 1.59028e-015 1.59028e-015 -1.19271e-015 -0 -0 -2.98177e-015 -0 3.18055e-015 2.38542e-015 1.59028e-015 0.0129234 0.00232073 -7.98212e-005 -1.59028e-015 4.37326e-015 1.59028e-015 3.18055e-015 2.38542e-015 1.59028e-015 0.0163189 0.00299644 -0.00087724 1.74004e-006 2.66369e-006 -6.17621e-006 3.18055e-015 2.38542e-015 1.59028e-015 0.0145788 0.00369964 -0.00325585 8.48729e-006 3.60246e-006 5.61706e-006 3.18055e-015 2.38542e-015 1.59028e-015 1.59028e-015 -1.19271e-015 -0 -0 -2.98177e-015 -0 -12.1383 -10.187 -15.2962 -171.459 60.8234 170.804 -2.04962 26.2292 -5.7238 7.83594e-007 2.51693e-007 8.38854e-007 13.7702 -10.4321 14.1303 171.45 60.8803 -170.81 2.45836 26.745 3.42579 3.57812e-015 3.18055e-015 3.18055e-015 
